<?xml version="1.0" encoding="utf-8"?>
<!-- Generator: Adobe Illustrator 23.0.2, SVG Export Plug-In . SVG Version: 6.00 Build 0)  -->
<svg version="1.1" id="Layer_1" xmlns="http://www.w3.org/2000/svg" xmlns:xlink="http://www.w3.org/1999/xlink" x="0px" y="0px"
	 viewBox="0 0 162.9 140.8" style="enable-background:new 0 0 162.9 140.8;" xml:space="preserve">
<style type="text/css">
	.st0{fill:#88C66D;stroke:#88C66D;stroke-miterlimit:10;}
	.st1{fill:#344856;}
	.st2{fill:none;stroke:#344856;stroke-miterlimit:10;}
	.st3{fill:#80CDC3;}
	.st4{fill:#54BBAE;}
	.st5{fill:#FEBE10;}
	.st6{fill:none;stroke:#80CDC3;stroke-miterlimit:10;}
	.st7{fill:none;stroke:#88C66D;stroke-miterlimit:10;}
</style>
<title>TradeRES</title>
<g id="Layer_3">
	<polygon class="st0" points="101.3,74.7 117.2,138.1 159.9,103.6 	"/>
	<polygon class="st1" points="66.9,106.8 92.7,73.7 58.4,65.7 	"/>
	<polygon class="st2" points="102.5,65.7 161.2,37.1 118.8,2.4 	"/>
	<polygon class="st3" points="96.8,75.7 58.1,128.3 111.8,139.3 	"/>
	<polygon class="st3" points="103.3,70.3 162.4,98.3 162.9,43.4 	"/>
	<polygon class="st0" points="63.8,108.6 46.4,70.4 23.4,97.1 	"/>
	<polygon class="st3" points="23,103 41.8,140.5 63.8,112.9 	"/>
	<polygon class="st4" points="14.6,140.8 37.8,140.6 29.4,123 	"/>
	<polygon class="st5" points="26.1,121.6 2.9,122 11.4,139.5 	"/>
	<polygon class="st1" points="4.2,130.6 0,139.4 8.2,139.5 	"/>
	<polygon class="st6" points="102.4,66.2 151.3,28.8 101.4,0.9 	"/>
	<polygon class="st7" points="102.4,66 140.7,23 87.2,5 	"/>
</g>
</svg>
