<svg xmlns="http://www.w3.org/2000/svg" viewBox="0 0 542.45 264.31"><defs><style>.cls-1,.cls-6{fill:#88c66d;}.cls-2{fill:#344856;}.cls-3{fill:#80cdc3;}.cls-4{fill:#54bbae;}.cls-5{fill:#febe10;}.cls-6{stroke:#88c66d;stroke-miterlimit:10;}.cls-7{opacity:0.5;}</style></defs><title>TradeRES</title><g id="Layer_3" data-name="Layer 3"><polygon class="cls-1" points="161.42 120.01 177.54 183.31 220.11 148.69 161.42 120.01"/><path class="cls-2" d="M177.48,49.61l41.07,32-55.24,28,14.18-60m-.61-1.75-15,63.57,58.57-29.66L176.87,47.86Z"/><polygon class="cls-3" points="156.89 121.05 118.36 173.81 172.17 184.57 156.89 121.05"/><polygon class="cls-3" points="163.41 115.58 222.54 143.35 222.84 88.48 163.41 115.58"/><path class="cls-3" d="M161.46,48.25,207.81,73.5l-45.38,36-1-61.3m-1-1.7,1,65,48.15-38.24-49.18-26.8Z"/><path class="cls-1" d="M146.83,52.31l50.9,16L162,109.47,146.83,52.31m-1.43-1.5,16.16,60.75,37.93-43.72-54.09-17Z"/><polygon class="cls-2" points="111.78 111 132.19 147.67 152.94 119.17 111.78 111"/><polygon class="cls-3" points="84.3 148.86 103.72 186.85 125.47 157.03 84.3 148.86"/><polygon class="cls-1" points="128.4 152.35 108.14 115.59 87.27 144 128.4 152.35"/><polygon class="cls-4" points="76.01 188.61 99.19 188.33 90.8 170.77 76.01 188.61"/><polygon class="cls-5" points="87.43 168.15 64.26 168.38 72.61 185.97 87.43 168.15"/><polygon class="cls-2" points="63.57 177.34 59.58 186.23 67.77 186.14 63.57 177.34"/></g><g id="Layer_2" data-name="Layer 2"><path class="cls-6" d="M413.65,130.73h-4.3a2.12,2.12,0,0,1-2-1l-9.3-12.8a2.77,2.77,0,0,0-.91-.86,3.34,3.34,0,0,0-1.51-.26H392v14.95h-4.83V94.91H397.3a22.1,22.1,0,0,1,5.88.69,11.23,11.23,0,0,1,4.09,2,8,8,0,0,1,2.39,3.14,10.47,10.47,0,0,1,.78,4.11,10.3,10.3,0,0,1-.6,3.55,9.38,9.38,0,0,1-1.74,3,10.39,10.39,0,0,1-2.77,2.24,13.75,13.75,0,0,1-3.71,1.4,4.82,4.82,0,0,1,1.6,1.53ZM397.1,112.26a12.26,12.26,0,0,0,3.71-.51,7.6,7.6,0,0,0,2.7-1.45,6,6,0,0,0,1.64-2.24,7.3,7.3,0,0,0,.55-2.87,5.73,5.73,0,0,0-2.1-4.83q-2.1-1.62-6.3-1.62H392v13.53Z"/><path class="cls-6" d="M440.85,126.78l0,3.95H418.75V94.91h22.08v3.95H423.6v11.9h14v3.8h-14v12.22Z"/><path class="cls-6" d="M466.2,100.51a1.84,1.84,0,0,1-.49.56,1.07,1.07,0,0,1-.64.19,1.77,1.77,0,0,1-1-.42q-.58-.42-1.44-.94a11.72,11.72,0,0,0-2.08-.94,8.94,8.94,0,0,0-2.94-.42,8.58,8.58,0,0,0-2.86.44,6.11,6.11,0,0,0-2.08,1.19,4.88,4.88,0,0,0-1.26,1.76,5.6,5.6,0,0,0-.42,2.19,4,4,0,0,0,.74,2.49,6.35,6.35,0,0,0,2,1.69,14.91,14.91,0,0,0,2.75,1.21l3.15,1.06q1.61.55,3.15,1.24a11.09,11.09,0,0,1,2.75,1.74,7.92,7.92,0,0,1,2,2.57,8.58,8.58,0,0,1,.74,3.75,12.1,12.1,0,0,1-.8,4.41,10.17,10.17,0,0,1-2.34,3.59,10.91,10.91,0,0,1-3.77,2.4,13.87,13.87,0,0,1-5.09.88,15.5,15.5,0,0,1-6.35-1.26,14.89,14.89,0,0,1-4.87-3.41l1.4-2.3a1.85,1.85,0,0,1,.49-.46,1.14,1.14,0,0,1,.64-.19,1.42,1.42,0,0,1,.74.26q.41.26.94.66c.35.27.75.56,1.2.88a10,10,0,0,0,1.54.88,10.51,10.51,0,0,0,2,.66,10.71,10.71,0,0,0,2.48.26,9.24,9.24,0,0,0,3.07-.47,6.51,6.51,0,0,0,2.29-1.34,5.79,5.79,0,0,0,1.44-2.06,6.89,6.89,0,0,0,.5-2.67,4.49,4.49,0,0,0-.74-2.66,6.13,6.13,0,0,0-1.94-1.74A13.43,13.43,0,0,0,458.2,115L455,114q-1.6-.51-3.15-1.19a10.19,10.19,0,0,1-2.75-1.75,8.06,8.06,0,0,1-1.94-2.69,10.31,10.31,0,0,1,0-7.66,9.39,9.39,0,0,1,2.15-3.15,10.51,10.51,0,0,1,3.47-2.2,12.69,12.69,0,0,1,4.74-.83,15.05,15.05,0,0,1,5.46,1,12.91,12.91,0,0,1,4.34,2.75Z"/><path class="cls-2" d="M258.38,130.95v-4.27l3.81-.73v-25h-6.47l-.39,4.25h-5.4V95.4h31.71v9.74h-5.42l-.39-4.25h-6.52v25l3.83.73v4.27Z"/><path class="cls-2" d="M281.74,130.95v-4.27l3.42-.73V109.56l-3.78-.73v-4.3H291.8l.27,3.27,0,.59a8.28,8.28,0,0,1,2.42-3.25A5.51,5.51,0,0,1,298,104a9.89,9.89,0,0,1,1.39.11,10.19,10.19,0,0,1,1.34.28L300,111l-3.54-.2a4.18,4.18,0,0,0-2.45.51,5.59,5.59,0,0,0-1.67,1.68v12.94l3.42.73v4.27Z"/><path class="cls-2" d="M309.68,131.46a8.93,8.93,0,0,1-6.25-2.11,7.38,7.38,0,0,1-2.32-5.75,7.27,7.27,0,0,1,1.36-4.37,8.89,8.89,0,0,1,4-3A17.44,17.44,0,0,1,313,115.2h3.49v-2A4,4,0,0,0,312,109a7,7,0,0,0-2.06.28,5.81,5.81,0,0,0-1.65.79l-.56,3.49h-5.13l-.1-6.86a22.17,22.17,0,0,1,4.49-1.9,18.56,18.56,0,0,1,5.4-.73q5.18,0,8.18,2.4a8.29,8.29,0,0,1,3,6.87v10.89c0,.36,0,.71,0,1.06a8.21,8.21,0,0,0,.09,1l2.76.39v4.27h-8.84q-.27-.68-.54-1.46a9,9,0,0,1-.39-1.56,10,10,0,0,1-3,2.58A8.13,8.13,0,0,1,309.68,131.46Zm1.9-5.27a6.26,6.26,0,0,0,2.83-.67,5.25,5.25,0,0,0,2.08-1.77v-4.17H313a5.2,5.2,0,0,0-3.55,1.07,3.35,3.35,0,0,0-1.21,2.59,2.73,2.73,0,0,0,.89,2.19A3.67,3.67,0,0,0,311.59,126.18Z"/><path class="cls-2" d="M337.67,131.46a9,9,0,0,1-5.41-1.62,10.18,10.18,0,0,1-3.46-4.54,17.89,17.89,0,0,1-1.2-6.82V118a20.2,20.2,0,0,1,1.21-7.3,11,11,0,0,1,3.46-4.87,8.49,8.49,0,0,1,5.37-1.75,8,8,0,0,1,3.81.87,8.54,8.54,0,0,1,2.83,2.45V97.89l-3.81-.73v-4.3h10.94v33.08l3.42.73v4.27h-9.59l-.54-3.22a8.68,8.68,0,0,1-3,2.78A8.27,8.27,0,0,1,337.67,131.46Zm2.12-5.54a5.21,5.21,0,0,0,2.61-.63,5.32,5.32,0,0,0,1.88-1.83V112.24a5.47,5.47,0,0,0-1.86-2,4.8,4.8,0,0,0-2.59-.7,4.11,4.11,0,0,0-2.92,1.06,6.23,6.23,0,0,0-1.66,2.94,16.34,16.34,0,0,0-.52,4.37v.51a10.76,10.76,0,0,0,1.17,5.46A4.15,4.15,0,0,0,339.8,125.92Z"/><path class="cls-2" d="M368.25,131.46a12.76,12.76,0,0,1-6.62-1.67,11.47,11.47,0,0,1-4.38-4.6,14.09,14.09,0,0,1-1.55-6.69v-1a15.87,15.87,0,0,1,1.46-7,11.6,11.6,0,0,1,4.14-4.79,11.15,11.15,0,0,1,6.31-1.72,11.86,11.86,0,0,1,6,1.42,9.14,9.14,0,0,1,3.71,4.08,14.89,14.89,0,0,1,1.27,6.45v3.88H363.1l0,.15a7.92,7.92,0,0,0,.87,3.09,5.28,5.28,0,0,0,2,2.13,6.25,6.25,0,0,0,3.2.77,12.84,12.84,0,0,0,3.65-.5,14,14,0,0,0,3.31-1.48l1.93,4.39a13.74,13.74,0,0,1-4.11,2.19A17.18,17.18,0,0,1,368.25,131.46Zm-5.1-16.31H372v-.63a8,8,0,0,0-.43-2.77,3.6,3.6,0,0,0-1.37-1.79,4.26,4.26,0,0,0-2.43-.63,3.83,3.83,0,0,0-2.39.74,4.9,4.9,0,0,0-1.53,2,10.69,10.69,0,0,0-.75,2.93Z"/><g class="cls-7"><path class="cls-2" d="M260.8,145.76V156H260a.63.63,0,0,1-.3-.06.91.91,0,0,1-.24-.21l-5.8-7.5c0,.13,0,.26,0,.38s0,.24,0,.35v7h-1.34V145.76h.79a.75.75,0,0,1,.3,0,.67.67,0,0,1,.22.21l5.82,7.51c0-.14,0-.27,0-.4s0-.25,0-.37v-7Z"/><path class="cls-2" d="M268.8,155a2.72,2.72,0,0,1-.59.52,3.39,3.39,0,0,1-.72.35,4.18,4.18,0,0,1-.78.2,5.18,5.18,0,0,1-.8.07,3.75,3.75,0,0,1-1.39-.25,3.09,3.09,0,0,1-1.11-.74,3.37,3.37,0,0,1-.73-1.22,4.92,4.92,0,0,1-.26-1.67,4.14,4.14,0,0,1,.24-1.41,3.39,3.39,0,0,1,.68-1.14,3.09,3.09,0,0,1,1.08-.77,3.53,3.53,0,0,1,1.43-.28,3.36,3.36,0,0,1,1.23.22,2.71,2.71,0,0,1,1,.63,2.93,2.93,0,0,1,.64,1,3.89,3.89,0,0,1,.23,1.39.89.89,0,0,1-.07.43.29.29,0,0,1-.27.11h-4.76a3.92,3.92,0,0,0,.19,1.13,2.29,2.29,0,0,0,.45.8,1.81,1.81,0,0,0,.69.48,2.42,2.42,0,0,0,.89.16,2.7,2.7,0,0,0,.8-.11,3.7,3.7,0,0,0,.59-.23l.42-.23a.58.58,0,0,1,.3-.11.31.31,0,0,1,.27.13Zm-1.15-3.4a2.4,2.4,0,0,0-.12-.77,1.74,1.74,0,0,0-.35-.61,1.58,1.58,0,0,0-.56-.4,2.13,2.13,0,0,0-2.14.37,2.46,2.46,0,0,0-.64,1.41Z"/><path class="cls-2" d="M280.44,148.77,278.1,156H277c-.13,0-.22-.09-.27-.26L275.18,151c0-.12-.07-.24-.1-.35s-.06-.24-.08-.35a5.16,5.16,0,0,1-.18.72l-1.55,4.72a.3.3,0,0,1-.31.26H271.9l-2.35-7.27h1.1a.47.47,0,0,1,.28.08.36.36,0,0,1,.15.2l1.31,4.46q.06.27.11.53c0,.17.06.34.09.52,0-.17.09-.34.14-.52l.15-.53,1.45-4.49a.36.36,0,0,1,.14-.2.39.39,0,0,1,.24-.07h.61a.43.43,0,0,1,.26.07.36.36,0,0,1,.14.2l1.42,4.49.15.53c0,.17.09.35.13.53,0-.17.06-.34.1-.52s.08-.35.13-.54L279,149a.36.36,0,0,1,.15-.2.44.44,0,0,1,.25-.08Z"/><path class="cls-2" d="M296,145.76V156H294.7v-7.31c0-.11,0-.23,0-.35s0-.25,0-.38l-3.42,6.27a.58.58,0,0,1-.55.35h-.21a.57.57,0,0,1-.54-.35L286.52,148a7,7,0,0,1,0,.75V156h-1.34V145.76h1.13a.94.94,0,0,1,.31,0,.43.43,0,0,1,.21.22l3.43,6.15a4,4,0,0,1,.19.39l.16.41a6.86,6.86,0,0,1,.35-.82l3.37-6.14a.41.41,0,0,1,.2-.22,1,1,0,0,1,.31,0Z"/><path class="cls-2" d="M297.89,149.78a4,4,0,0,1,2.88-1.15,2.79,2.79,0,0,1,1.1.2,2.27,2.27,0,0,1,.81.57,2.45,2.45,0,0,1,.5.87,3.57,3.57,0,0,1,.17,1.12V156h-.62a.61.61,0,0,1-.31-.07.47.47,0,0,1-.17-.25l-.15-.64a6.24,6.24,0,0,1-.55.46,3.49,3.49,0,0,1-.57.33,2.88,2.88,0,0,1-.63.21,3.57,3.57,0,0,1-.74.07,2.68,2.68,0,0,1-.8-.12,1.82,1.82,0,0,1-.65-.36,1.72,1.72,0,0,1-.44-.61,2.09,2.09,0,0,1-.16-.85,1.62,1.62,0,0,1,.23-.83,2.09,2.09,0,0,1,.76-.71,4.87,4.87,0,0,1,1.37-.52,10.37,10.37,0,0,1,2.09-.23v-.53a1.85,1.85,0,0,0-.35-1.23,1.28,1.28,0,0,0-1-.41,2.24,2.24,0,0,0-.77.11,2.92,2.92,0,0,0-.54.25l-.39.25a.62.62,0,0,1-.35.11.39.39,0,0,1-.25-.08.66.66,0,0,1-.17-.19Zm4.09,3a10.68,10.68,0,0,0-1.44.13,4,4,0,0,0-1,.28,1.29,1.29,0,0,0-.54.4.87.87,0,0,0-.16.52,1.13,1.13,0,0,0,.09.47.89.89,0,0,0,.24.32,1,1,0,0,0,.36.18,1.68,1.68,0,0,0,.45.06,2.47,2.47,0,0,0,.59-.07,2.34,2.34,0,0,0,.5-.18,2.64,2.64,0,0,0,.45-.29,4.22,4.22,0,0,0,.42-.39Z"/><path class="cls-2" d="M306.54,150.16a3.33,3.33,0,0,1,.84-1.12,1.92,1.92,0,0,1,1.63-.35,1.18,1.18,0,0,1,.37.16l-.09,1.05a.22.22,0,0,1-.24.19l-.3,0a2.18,2.18,0,0,0-.43,0,1.67,1.67,0,0,0-.59.1,1.36,1.36,0,0,0-.46.29,2,2,0,0,0-.36.47,4.67,4.67,0,0,0-.29.63V156h-1.4v-7.27h.8a.44.44,0,0,1,.31.08.54.54,0,0,1,.12.29Z"/><path class="cls-2" d="M311.86,145.48v6.17h.33a.64.64,0,0,0,.25,0,.59.59,0,0,0,.21-.17l2.17-2.4a.73.73,0,0,1,.22-.2.64.64,0,0,1,.31-.07h1.27l-2.57,2.81a1.69,1.69,0,0,1-.44.41,1.23,1.23,0,0,1,.24.21l.2.26,2.73,3.57h-1.25a.7.7,0,0,1-.3-.06.56.56,0,0,1-.23-.21l-2.25-2.92a.54.54,0,0,0-.21-.21.86.86,0,0,0-.32,0h-.37V156h-1.4V145.48Z"/><path class="cls-2" d="M323.39,155a2.72,2.72,0,0,1-.59.52,3.39,3.39,0,0,1-.72.35,4.18,4.18,0,0,1-.78.2,5.18,5.18,0,0,1-.8.07,3.75,3.75,0,0,1-1.39-.25,3.09,3.09,0,0,1-1.11-.74,3.37,3.37,0,0,1-.73-1.22,4.92,4.92,0,0,1-.26-1.67,4.14,4.14,0,0,1,.24-1.41,3.39,3.39,0,0,1,.68-1.14,3.09,3.09,0,0,1,1.08-.77,3.53,3.53,0,0,1,1.43-.28,3.36,3.36,0,0,1,1.23.22,2.71,2.71,0,0,1,1,.63,2.93,2.93,0,0,1,.64,1,3.89,3.89,0,0,1,.23,1.39.89.89,0,0,1-.07.43.29.29,0,0,1-.27.11H318.4a3.92,3.92,0,0,0,.19,1.13,2.29,2.29,0,0,0,.45.8,1.81,1.81,0,0,0,.69.48,2.42,2.42,0,0,0,.89.16,2.7,2.7,0,0,0,.8-.11,3.7,3.7,0,0,0,.59-.23l.42-.23a.58.58,0,0,1,.3-.11.31.31,0,0,1,.27.13Zm-1.15-3.4a2.4,2.4,0,0,0-.12-.77,1.74,1.74,0,0,0-.35-.61,1.58,1.58,0,0,0-.56-.4,2.13,2.13,0,0,0-2.14.37,2.46,2.46,0,0,0-.64,1.41Z"/><path class="cls-2" d="M327.22,156.15a1.79,1.79,0,0,1-1.35-.49,2,2,0,0,1-.48-1.41V149.9h-.84a.29.29,0,0,1-.2-.07.29.29,0,0,1-.08-.23V149l1.18-.16.31-2.17a.33.33,0,0,1,.11-.19.32.32,0,0,1,.21-.07h.71v2.44h2.06v1h-2.06v4.26a.87.87,0,0,0,.21.64.73.73,0,0,0,.54.21,1,1,0,0,0,.33,0l.24-.11.17-.11a.23.23,0,0,1,.13,0,.16.16,0,0,1,.11,0,.4.4,0,0,1,.08.1l.41.67a2.37,2.37,0,0,1-.82.49A2.84,2.84,0,0,1,327.22,156.15Z"/><path class="cls-2" d="M334.4,150a.4.4,0,0,1-.12.13.31.31,0,0,1-.16,0,.54.54,0,0,1-.25-.08l-.34-.17a3.26,3.26,0,0,0-.46-.17,2.26,2.26,0,0,0-.63-.08,1.89,1.89,0,0,0-.55.07,1.3,1.3,0,0,0-.42.21.93.93,0,0,0-.27.31.86.86,0,0,0-.09.39.64.64,0,0,0,.16.45,1.36,1.36,0,0,0,.42.31,4.05,4.05,0,0,0,.59.23l.68.22c.23.08.46.16.68.26a2.53,2.53,0,0,1,.59.36,1.77,1.77,0,0,1,.42.53,1.61,1.61,0,0,1,.16.75,2.39,2.39,0,0,1-.18.94,2.07,2.07,0,0,1-.54.75,2.58,2.58,0,0,1-.88.49,3.7,3.7,0,0,1-1.2.18,3.77,3.77,0,0,1-1.39-.25,3.49,3.49,0,0,1-1.07-.64l.33-.54a.43.43,0,0,1,.14-.15.42.42,0,0,1,.23-.05.49.49,0,0,1,.28.1l.34.22a2.54,2.54,0,0,0,.49.21,2.24,2.24,0,0,0,.71.1,2,2,0,0,0,.62-.09,1.26,1.26,0,0,0,.44-.24,1,1,0,0,0,.26-.35,1.06,1.06,0,0,0,.09-.42.71.71,0,0,0-.16-.47,1.38,1.38,0,0,0-.42-.33,3.3,3.3,0,0,0-.6-.24l-.69-.22a6.78,6.78,0,0,1-.69-.26,2.33,2.33,0,0,1-.6-.38,1.76,1.76,0,0,1-.42-.56,1.81,1.81,0,0,1-.16-.8A1.93,1.93,0,0,1,330,150a2,2,0,0,1,.51-.68,2.5,2.5,0,0,1,.82-.47,3.32,3.32,0,0,1,1.12-.18,3.53,3.53,0,0,1,1.31.23,3,3,0,0,1,1,.63Z"/><path class="cls-2" d="M349.2,150.9a5.74,5.74,0,0,1-.37,2.1,4.59,4.59,0,0,1-2.65,2.67,5.62,5.62,0,0,1-2.08.37h-3.86V145.76h3.86a5.62,5.62,0,0,1,2.08.37,4.58,4.58,0,0,1,2.65,2.67A5.75,5.75,0,0,1,349.2,150.9Zm-1.56,0a5,5,0,0,0-.25-1.64,3.48,3.48,0,0,0-.71-1.23,3,3,0,0,0-1.12-.77,3.87,3.87,0,0,0-1.46-.26h-2.33v7.81h2.33a3.87,3.87,0,0,0,1.46-.26,3,3,0,0,0,1.12-.77,3.46,3.46,0,0,0,.71-1.23A5,5,0,0,0,347.64,150.9Z"/><path class="cls-2" d="M356.69,155a2.72,2.72,0,0,1-.59.52,3.39,3.39,0,0,1-.72.35,4.18,4.18,0,0,1-.78.2,5.18,5.18,0,0,1-.8.07,3.75,3.75,0,0,1-1.39-.25,3.09,3.09,0,0,1-1.11-.74,3.37,3.37,0,0,1-.73-1.22,4.92,4.92,0,0,1-.26-1.67,4.14,4.14,0,0,1,.24-1.41,3.39,3.39,0,0,1,.68-1.14,3.09,3.09,0,0,1,1.08-.77,3.53,3.53,0,0,1,1.43-.28,3.36,3.36,0,0,1,1.23.22,2.71,2.71,0,0,1,1,.63,2.93,2.93,0,0,1,.64,1,3.89,3.89,0,0,1,.23,1.39.89.89,0,0,1-.07.43.29.29,0,0,1-.27.11H351.7a3.92,3.92,0,0,0,.19,1.13,2.29,2.29,0,0,0,.45.8,1.81,1.81,0,0,0,.69.48,2.42,2.42,0,0,0,.89.16,2.7,2.7,0,0,0,.8-.11,3.7,3.7,0,0,0,.59-.23l.42-.23a.58.58,0,0,1,.3-.11.31.31,0,0,1,.27.13Zm-1.15-3.4a2.4,2.4,0,0,0-.12-.77,1.74,1.74,0,0,0-.35-.61,1.58,1.58,0,0,0-.56-.4,2.13,2.13,0,0,0-2.14.37,2.46,2.46,0,0,0-.64,1.41Z"/><path class="cls-2" d="M362.59,150a.4.4,0,0,1-.12.13.31.31,0,0,1-.16,0,.54.54,0,0,1-.25-.08l-.34-.17a3.26,3.26,0,0,0-.46-.17,2.26,2.26,0,0,0-.63-.08,1.89,1.89,0,0,0-.55.07,1.3,1.3,0,0,0-.42.21.93.93,0,0,0-.27.31.86.86,0,0,0-.09.39.64.64,0,0,0,.16.45,1.36,1.36,0,0,0,.42.31,4.05,4.05,0,0,0,.59.23l.68.22c.23.08.46.16.68.26a2.53,2.53,0,0,1,.59.36,1.77,1.77,0,0,1,.42.53,1.61,1.61,0,0,1,.16.75,2.39,2.39,0,0,1-.18.94,2.07,2.07,0,0,1-.54.75,2.58,2.58,0,0,1-.88.49,3.7,3.7,0,0,1-1.2.18,3.77,3.77,0,0,1-1.39-.25,3.49,3.49,0,0,1-1.07-.64l.33-.54a.43.43,0,0,1,.14-.15.42.42,0,0,1,.23-.05.49.49,0,0,1,.28.1l.34.22a2.54,2.54,0,0,0,.49.21,2.24,2.24,0,0,0,.71.1,2,2,0,0,0,.62-.09,1.26,1.26,0,0,0,.44-.24,1,1,0,0,0,.26-.35,1.06,1.06,0,0,0,.09-.42.71.71,0,0,0-.16-.47,1.38,1.38,0,0,0-.42-.33,3.3,3.3,0,0,0-.6-.24l-.69-.22a6.78,6.78,0,0,1-.69-.26,2.33,2.33,0,0,1-.6-.38,1.76,1.76,0,0,1-.42-.56,1.81,1.81,0,0,1-.16-.8,1.93,1.93,0,0,1,.18-.81,2,2,0,0,1,.51-.68,2.5,2.5,0,0,1,.82-.47,3.32,3.32,0,0,1,1.12-.18,3.53,3.53,0,0,1,1.31.23,3,3,0,0,1,1,.63Z"/><path class="cls-2" d="M366.24,146.52a.89.89,0,0,1-.08.37,1,1,0,0,1-.21.31.94.94,0,0,1-.31.21,1,1,0,0,1-.37.07.9.9,0,0,1-.36-.07,1,1,0,0,1-.3-.21,1,1,0,0,1-.21-.31.93.93,0,0,1-.07-.37,1,1,0,0,1,.07-.38,1,1,0,0,1,.21-.31,1,1,0,0,1,.3-.21.9.9,0,0,1,.36-.07,1,1,0,0,1,.68.28,1,1,0,0,1,.21.31A.91.91,0,0,1,366.24,146.52Zm-.27,2.25V156h-1.4v-7.27Z"/><path class="cls-2" d="M374.2,149v.52c0,.17-.11.28-.32.32l-.78.11a2.5,2.5,0,0,1,.16.47,2.27,2.27,0,0,1,.06.52,2.17,2.17,0,0,1-.78,1.71,2.56,2.56,0,0,1-.87.47,3.51,3.51,0,0,1-1.11.16,3.74,3.74,0,0,1-.92-.11,1.08,1.08,0,0,0-.33.28.53.53,0,0,0-.11.3.4.4,0,0,0,.21.37,1.6,1.6,0,0,0,.55.18,6.65,6.65,0,0,0,.78.07l.89,0a8.09,8.09,0,0,1,.89.11,2.67,2.67,0,0,1,.78.27,1.38,1.38,0,0,1,.76,1.33,2,2,0,0,1-.23.91,2.42,2.42,0,0,1-.68.79,3.56,3.56,0,0,1-1.08.55,4.62,4.62,0,0,1-1.44.21,5.63,5.63,0,0,1-1.41-.16,3.33,3.33,0,0,1-1-.42,1.81,1.81,0,0,1-.59-.61,1.47,1.47,0,0,1-.2-.73,1.3,1.3,0,0,1,.33-.9,2.19,2.19,0,0,1,.91-.58,1.26,1.26,0,0,1-.5-.39,1.06,1.06,0,0,1-.19-.65,1,1,0,0,1,.06-.33,1.33,1.33,0,0,1,.18-.34,1.68,1.68,0,0,1,.29-.32,2.13,2.13,0,0,1,.4-.27,2.3,2.3,0,0,1-.84-.8,2.23,2.23,0,0,1,.48-2.86,2.63,2.63,0,0,1,.88-.47,3.65,3.65,0,0,1,1.12-.16,3.19,3.19,0,0,1,1.62.39Zm-1.42,7.37a.58.58,0,0,0-.14-.41,1,1,0,0,0-.39-.24,2.66,2.66,0,0,0-.58-.13l-.69-.06-.74,0a7.27,7.27,0,0,1-.73-.07,2.07,2.07,0,0,0-.61.45.89.89,0,0,0-.24.62.83.83,0,0,0,.12.43,1,1,0,0,0,.36.35,2.12,2.12,0,0,0,.62.23,4.2,4.2,0,0,0,.9.08,4.14,4.14,0,0,0,.91-.09,2.2,2.2,0,0,0,.66-.25,1.18,1.18,0,0,0,.41-.38A.9.9,0,0,0,372.78,156.41Zm-2.22-4a2,2,0,0,0,.65-.1,1.28,1.28,0,0,0,.47-.28,1.16,1.16,0,0,0,.29-.44,1.6,1.6,0,0,0,.1-.56,1.34,1.34,0,0,0-.38-1,1.87,1.87,0,0,0-2.25,0,1.34,1.34,0,0,0-.38,1,1.59,1.59,0,0,0,.1.56,1.19,1.19,0,0,0,.29.44,1.34,1.34,0,0,0,.47.29A1.88,1.88,0,0,0,370.55,152.41Z"/><path class="cls-2" d="M376.78,149.78a4.91,4.91,0,0,1,.49-.46,3,3,0,0,1,.55-.35,3,3,0,0,1,.62-.23,2.93,2.93,0,0,1,.71-.08,2.58,2.58,0,0,1,1.05.2,2.08,2.08,0,0,1,.76.56,2.43,2.43,0,0,1,.46.87,3.78,3.78,0,0,1,.16,1.12V156h-1.4v-4.63a1.85,1.85,0,0,0-.36-1.21,1.34,1.34,0,0,0-1.09-.43,2.09,2.09,0,0,0-1,.25,3.38,3.38,0,0,0-.87.69V156h-1.4v-7.27h.84a.34.34,0,0,1,.36.28Z"/><path class="cls-2" d="M396.23,156h-1.36a1,1,0,0,1-.36-.05.9.9,0,0,1-.3-.23l-1-1a5.06,5.06,0,0,1-1.54,1,4.91,4.91,0,0,1-1.91.36,3.34,3.34,0,0,1-1.13-.2,3.09,3.09,0,0,1-1-.57,2.85,2.85,0,0,1-.7-.91,2.63,2.63,0,0,1-.27-1.2,2.72,2.72,0,0,1,.16-.94,3,3,0,0,1,.46-.82,3.6,3.6,0,0,1,.7-.68,4.74,4.74,0,0,1,.88-.51,4.27,4.27,0,0,1-.62-1.07,3,3,0,0,1-.2-1.06,2.54,2.54,0,0,1,.19-1,2.35,2.35,0,0,1,.55-.81,2.59,2.59,0,0,1,.88-.54,3.22,3.22,0,0,1,1.17-.2,2.91,2.91,0,0,1,1.06.18,2.57,2.57,0,0,1,.82.49,2.3,2.3,0,0,1,.54.71,2.2,2.2,0,0,1,.23.84l-.87.18a.32.32,0,0,1-.39-.24,2.12,2.12,0,0,0-.16-.38,1.29,1.29,0,0,0-.27-.35,1.4,1.4,0,0,0-.4-.25,1.38,1.38,0,0,0-.54-.1,1.63,1.63,0,0,0-.62.11,1.43,1.43,0,0,0-.47.31,1.37,1.37,0,0,0-.3.46,1.54,1.54,0,0,0-.1.56,1.85,1.85,0,0,0,.06.46,2,2,0,0,0,.18.45,2.93,2.93,0,0,0,.3.46c.12.16.27.32.44.5l2.9,3a4.91,4.91,0,0,0,.42-1,5.34,5.34,0,0,0,.21-1,.4.4,0,0,1,.09-.23.28.28,0,0,1,.22-.09h.87a5.64,5.64,0,0,1-.27,1.67,5.74,5.74,0,0,1-.73,1.51Zm-6.69-5a2.84,2.84,0,0,0-1.05.94,2.16,2.16,0,0,0-.35,1.18,1.86,1.86,0,0,0,.16.79,1.73,1.73,0,0,0,.43.58,1.81,1.81,0,0,0,.62.36,2.1,2.1,0,0,0,.71.12,3.37,3.37,0,0,0,1.37-.27,3.75,3.75,0,0,0,1.08-.72Z"/><path class="cls-2" d="M412,145.76V156h-1.33v-7.31c0-.11,0-.23,0-.35s0-.25,0-.38l-3.42,6.27a.58.58,0,0,1-.55.35h-.21a.57.57,0,0,1-.54-.35L402.51,148a7,7,0,0,1,0,.75V156h-1.34V145.76h1.13a.94.94,0,0,1,.31,0,.43.43,0,0,1,.21.22l3.43,6.15a4,4,0,0,1,.19.39l.16.41a6.86,6.86,0,0,1,.35-.82l3.37-6.14a.41.41,0,0,1,.2-.22,1,1,0,0,1,.31,0Z"/><path class="cls-2" d="M417.14,148.65a3.88,3.88,0,0,1,1.45.26,3,3,0,0,1,1.1.75,3.36,3.36,0,0,1,.7,1.18,5.06,5.06,0,0,1,0,3.1,3.33,3.33,0,0,1-.7,1.18,3.05,3.05,0,0,1-1.1.75,4.15,4.15,0,0,1-2.9,0,3.09,3.09,0,0,1-1.11-.75,3.33,3.33,0,0,1-.71-1.18,5,5,0,0,1,0-3.1,3.36,3.36,0,0,1,.71-1.18,3.05,3.05,0,0,1,1.11-.75A3.9,3.9,0,0,1,417.14,148.65Zm0,6.39a1.78,1.78,0,0,0,1.54-.69,4,4,0,0,0,0-3.91,1.78,1.78,0,0,0-1.54-.7,1.8,1.8,0,0,0-1.56.7,4,4,0,0,0,0,3.91A1.8,1.8,0,0,0,417.14,155Z"/><path class="cls-2" d="M428.27,145.48V156h-.84a.34.34,0,0,1-.36-.28l-.12-.84a3.86,3.86,0,0,1-1.05.88,2.73,2.73,0,0,1-1.36.33,2.55,2.55,0,0,1-1.13-.24,2.37,2.37,0,0,1-.86-.71A3.4,3.4,0,0,1,422,154a5.93,5.93,0,0,1-.19-1.59,5.08,5.08,0,0,1,.21-1.5,3.6,3.6,0,0,1,.62-1.2,2.93,2.93,0,0,1,1-.8,2.89,2.89,0,0,1,1.31-.29,2.45,2.45,0,0,1,1.95.82v-4Zm-1.4,5a2,2,0,0,0-.74-.63,2.16,2.16,0,0,0-.89-.18,1.75,1.75,0,0,0-1.48.69,3.28,3.28,0,0,0-.53,2,5.12,5.12,0,0,0,.12,1.18,2.25,2.25,0,0,0,.34.8,1.37,1.37,0,0,0,.55.46,1.81,1.81,0,0,0,.74.15,2,2,0,0,0,1.05-.27,3.18,3.18,0,0,0,.83-.77Z"/><path class="cls-2" d="M436.19,155a2.72,2.72,0,0,1-.59.52,3.39,3.39,0,0,1-.72.35,4.18,4.18,0,0,1-.78.2,5.18,5.18,0,0,1-.8.07,3.75,3.75,0,0,1-1.39-.25,3.09,3.09,0,0,1-1.11-.74,3.37,3.37,0,0,1-.73-1.22,4.92,4.92,0,0,1-.26-1.67,4.14,4.14,0,0,1,.24-1.41,3.39,3.39,0,0,1,.68-1.14,3.09,3.09,0,0,1,1.08-.77,3.53,3.53,0,0,1,1.43-.28,3.36,3.36,0,0,1,1.23.22,2.71,2.71,0,0,1,1,.63,2.93,2.93,0,0,1,.64,1,3.89,3.89,0,0,1,.23,1.39.89.89,0,0,1-.07.43.29.29,0,0,1-.27.11H431.2a3.92,3.92,0,0,0,.19,1.13,2.29,2.29,0,0,0,.45.8,1.81,1.81,0,0,0,.69.48,2.42,2.42,0,0,0,.89.16,2.7,2.7,0,0,0,.8-.11,3.7,3.7,0,0,0,.59-.23l.42-.23a.58.58,0,0,1,.3-.11.31.31,0,0,1,.27.13Zm-1.15-3.4a2.4,2.4,0,0,0-.12-.77,1.74,1.74,0,0,0-.35-.61,1.58,1.58,0,0,0-.56-.4,2.13,2.13,0,0,0-2.14.37,2.46,2.46,0,0,0-.64,1.41Z"/><path class="cls-2" d="M439.23,145.48V156h-1.4V145.48Z"/><path class="cls-2" d="M445.5,150a.4.4,0,0,1-.12.13.31.31,0,0,1-.16,0,.54.54,0,0,1-.25-.08l-.34-.17a3.26,3.26,0,0,0-.46-.17,2.26,2.26,0,0,0-.63-.08,1.89,1.89,0,0,0-.55.07,1.3,1.3,0,0,0-.42.21.93.93,0,0,0-.27.31.86.86,0,0,0-.09.39.64.64,0,0,0,.16.45,1.36,1.36,0,0,0,.42.31,4.05,4.05,0,0,0,.59.23l.68.22c.23.08.46.16.68.26a2.53,2.53,0,0,1,.59.36,1.77,1.77,0,0,1,.42.53,1.61,1.61,0,0,1,.16.75,2.39,2.39,0,0,1-.18.94,2.07,2.07,0,0,1-.54.75,2.58,2.58,0,0,1-.88.49,3.7,3.7,0,0,1-1.2.18,3.77,3.77,0,0,1-1.39-.25,3.49,3.49,0,0,1-1.07-.64l.33-.54a.43.43,0,0,1,.14-.15.42.42,0,0,1,.23-.05.49.49,0,0,1,.28.1l.34.22a2.54,2.54,0,0,0,.49.21,2.24,2.24,0,0,0,.71.1,2,2,0,0,0,.62-.09,1.26,1.26,0,0,0,.44-.24,1,1,0,0,0,.26-.35,1.06,1.06,0,0,0,.09-.42.71.71,0,0,0-.16-.47,1.38,1.38,0,0,0-.42-.33,3.3,3.3,0,0,0-.6-.24l-.69-.22a6.78,6.78,0,0,1-.69-.26,2.33,2.33,0,0,1-.6-.38,1.76,1.76,0,0,1-.42-.56,1.81,1.81,0,0,1-.16-.8,1.93,1.93,0,0,1,.18-.81,2,2,0,0,1,.51-.68,2.5,2.5,0,0,1,.82-.47,3.32,3.32,0,0,1,1.12-.18,3.53,3.53,0,0,1,1.31.23,3,3,0,0,1,1,.63Z"/><path class="cls-2" d="M451.53,156v-6.12l-.76-.09a.65.65,0,0,1-.27-.12.29.29,0,0,1-.1-.24v-.58h1.13v-.66a3.2,3.2,0,0,1,.18-1.11,2.29,2.29,0,0,1,.51-.82,2.15,2.15,0,0,1,.8-.51,3,3,0,0,1,1.05-.18,2.76,2.76,0,0,1,.91.14l0,.7a.2.2,0,0,1-.06.14.32.32,0,0,1-.13.07l-.2,0h-.25a2,2,0,0,0-.59.08,1,1,0,0,0-.45.26,1.22,1.22,0,0,0-.29.49,2.43,2.43,0,0,0-.1.75v.62h2v1h-2V156Z"/><path class="cls-2" d="M459,148.65a3.88,3.88,0,0,1,1.45.26,3,3,0,0,1,1.1.75,3.36,3.36,0,0,1,.7,1.18,5.06,5.06,0,0,1,0,3.1,3.33,3.33,0,0,1-.7,1.18,3.05,3.05,0,0,1-1.1.75,4.15,4.15,0,0,1-2.9,0,3.09,3.09,0,0,1-1.11-.75,3.33,3.33,0,0,1-.71-1.18,5,5,0,0,1,0-3.1,3.36,3.36,0,0,1,.71-1.18,3.05,3.05,0,0,1,1.11-.75A3.9,3.9,0,0,1,459,148.65Zm0,6.39a1.78,1.78,0,0,0,1.54-.69,4,4,0,0,0,0-3.91,1.78,1.78,0,0,0-1.54-.7,1.8,1.8,0,0,0-1.56.7,4,4,0,0,0,0,3.91A1.8,1.8,0,0,0,459,155Z"/><path class="cls-2" d="M465.32,150.16a3.33,3.33,0,0,1,.84-1.12,1.92,1.92,0,0,1,1.63-.35,1.18,1.18,0,0,1,.37.16l-.09,1.05a.22.22,0,0,1-.24.19l-.3,0a2.18,2.18,0,0,0-.43,0,1.67,1.67,0,0,0-.59.1,1.36,1.36,0,0,0-.46.29,2,2,0,0,0-.36.47,4.67,4.67,0,0,0-.29.63V156H464v-7.27h.8a.44.44,0,0,1,.31.08.54.54,0,0,1,.12.29Z"/><path class="cls-2" d="M258.43,172.14v1.07h-5.55v-1.07h2.17v-6.73q0-.32,0-.67l-1.75,1.48a.49.49,0,0,1-.39.11.39.39,0,0,1-.16-.06l-.11-.1-.44-.61,3.08-2.65h1.14v9.23Z"/><path class="cls-2" d="M267.3,168.07a8.33,8.33,0,0,1-.29,2.33,4.88,4.88,0,0,1-.79,1.63,3.18,3.18,0,0,1-1.19,1,3.58,3.58,0,0,1-2.94,0,3.16,3.16,0,0,1-1.18-1,4.87,4.87,0,0,1-.79-1.63,9.66,9.66,0,0,1,0-4.67,4.84,4.84,0,0,1,.79-1.64,3.16,3.16,0,0,1,1.18-1,3.6,3.6,0,0,1,2.94,0,3.19,3.19,0,0,1,1.19,1,4.84,4.84,0,0,1,.79,1.64A8.36,8.36,0,0,1,267.3,168.07Zm-1.44,0a8.37,8.37,0,0,0-.19-1.94,4,4,0,0,0-.51-1.26,1.9,1.9,0,0,0-.73-.68,2,2,0,0,0-1.73,0,1.9,1.9,0,0,0-.73.68,3.92,3.92,0,0,0-.5,1.26,10.22,10.22,0,0,0,0,3.88,3.84,3.84,0,0,0,.5,1.25,1.87,1.87,0,0,0,.73.67,2,2,0,0,0,1.73,0,1.87,1.87,0,0,0,.73-.67,3.88,3.88,0,0,0,.51-1.25A8.37,8.37,0,0,0,265.86,168.07Z"/><path class="cls-2" d="M275.6,168.07a8.33,8.33,0,0,1-.29,2.33,4.88,4.88,0,0,1-.79,1.63,3.18,3.18,0,0,1-1.19,1,3.58,3.58,0,0,1-2.94,0,3.16,3.16,0,0,1-1.18-1,4.87,4.87,0,0,1-.79-1.63,9.66,9.66,0,0,1,0-4.67,4.84,4.84,0,0,1,.79-1.64,3.16,3.16,0,0,1,1.18-1,3.6,3.6,0,0,1,2.94,0,3.19,3.19,0,0,1,1.19,1,4.84,4.84,0,0,1,.79,1.64A8.36,8.36,0,0,1,275.6,168.07Zm-1.44,0a8.37,8.37,0,0,0-.19-1.94,4,4,0,0,0-.51-1.26,1.9,1.9,0,0,0-.73-.68,2,2,0,0,0-1.73,0,1.9,1.9,0,0,0-.73.68,3.92,3.92,0,0,0-.5,1.26,10.22,10.22,0,0,0,0,3.88,3.84,3.84,0,0,0,.5,1.25,1.87,1.87,0,0,0,.73.67,2,2,0,0,0,1.73,0,1.87,1.87,0,0,0,.73-.67A3.88,3.88,0,0,0,274,170,8.37,8.37,0,0,0,274.16,168.07Z"/><path class="cls-2" d="M281.22,165.41a2.85,2.85,0,0,1-.19,1.07,2.43,2.43,0,0,1-.5.8,2.22,2.22,0,0,1-.73.5,2.25,2.25,0,0,1-.88.17,2.34,2.34,0,0,1-.91-.17,2.14,2.14,0,0,1-.73-.5,2.31,2.31,0,0,1-.48-.8,3,3,0,0,1-.18-1.07,3.15,3.15,0,0,1,.18-1.09,2.4,2.4,0,0,1,.48-.81A2.08,2.08,0,0,1,278,163a2.45,2.45,0,0,1,1.82,0,2.1,2.1,0,0,1,.73.51,2.36,2.36,0,0,1,.49.81A3.17,3.17,0,0,1,281.22,165.41Zm3.58-2.25A.86.86,0,0,1,285,163a.52.52,0,0,1,.29-.07h1l-7.54,10a.63.63,0,0,1-.19.16.52.52,0,0,1-.26.06h-1Zm-4.66,2.25a2.71,2.71,0,0,0-.1-.78,1.43,1.43,0,0,0-.26-.51,1,1,0,0,0-.39-.29,1.31,1.31,0,0,0-.94,0,1,1,0,0,0-.38.29,1.44,1.44,0,0,0-.25.51,2.8,2.8,0,0,0-.09.78,2.66,2.66,0,0,0,.09.75,1.41,1.41,0,0,0,.25.5.92.92,0,0,0,.38.28,1.34,1.34,0,0,0,.94,0,1,1,0,0,0,.39-.28,1.4,1.4,0,0,0,.26-.5A2.58,2.58,0,0,0,280.14,165.41Zm6.8,5.36a2.85,2.85,0,0,1-.19,1.07,2.44,2.44,0,0,1-.5.8,2.2,2.2,0,0,1-.73.5,2.24,2.24,0,0,1-.88.17,2.34,2.34,0,0,1-.91-.17,2.11,2.11,0,0,1-.73-.5,2.29,2.29,0,0,1-.48-.8,3.06,3.06,0,0,1-.18-1.07,3.17,3.17,0,0,1,.18-1.09,2.36,2.36,0,0,1,.48-.81,2,2,0,0,1,.73-.51,2.5,2.5,0,0,1,1.82,0,2.07,2.07,0,0,1,.73.51,2.33,2.33,0,0,1,.49.81A3.15,3.15,0,0,1,286.94,170.78Zm-1.09,0a2.64,2.64,0,0,0-.1-.77,1.44,1.44,0,0,0-.26-.51,1,1,0,0,0-.39-.29,1.26,1.26,0,0,0-.47-.09,1.24,1.24,0,0,0-.48.09.94.94,0,0,0-.38.29,1.43,1.43,0,0,0-.25.51,2.76,2.76,0,0,0-.09.77,2.64,2.64,0,0,0,.09.76,1.43,1.43,0,0,0,.25.5.93.93,0,0,0,.38.28,1.28,1.28,0,0,0,.48.09,1.29,1.29,0,0,0,.47-.09,1,1,0,0,0,.39-.28,1.44,1.44,0,0,0,.26-.5A2.53,2.53,0,0,0,285.85,170.78Z"/><path class="cls-2" d="M300.13,173.2h-1.36a.64.64,0,0,1-.59-.32l-2.54-3.56a.74.74,0,0,0-.26-.25.93.93,0,0,0-.43-.08h-1v4.21h-1.52V162.93h3a6.34,6.34,0,0,1,1.71.2,3.32,3.32,0,0,1,1.19.58,2.3,2.3,0,0,1,.69.91,3,3,0,0,1,.23,1.19,3.05,3.05,0,0,1-.16,1,2.64,2.64,0,0,1-.48.85,3,3,0,0,1-.78.65,3.79,3.79,0,0,1-1,.42,1.58,1.58,0,0,1,.49.48Zm-4.79-5.32a3.39,3.39,0,0,0,1-.14,2.1,2.1,0,0,0,.75-.4,1.66,1.66,0,0,0,.45-.62,2.07,2.07,0,0,0,.15-.8,1.59,1.59,0,0,0-.58-1.34,2.84,2.84,0,0,0-1.75-.45h-1.44v3.75Z"/><path class="cls-2" d="M306.65,172.17a2.77,2.77,0,0,1-.59.52,3.49,3.49,0,0,1-.72.35,4.33,4.33,0,0,1-.78.2,5,5,0,0,1-.8.07,3.71,3.71,0,0,1-1.39-.25,3.08,3.08,0,0,1-1.11-.74,3.4,3.4,0,0,1-.73-1.22,4.92,4.92,0,0,1-.26-1.67,4.15,4.15,0,0,1,.24-1.41,3.41,3.41,0,0,1,.68-1.14,3.11,3.11,0,0,1,1.08-.77,3.53,3.53,0,0,1,1.43-.28,3.36,3.36,0,0,1,1.23.22,2.74,2.74,0,0,1,1,.63,2.94,2.94,0,0,1,.64,1,3.88,3.88,0,0,1,.23,1.39.88.88,0,0,1-.07.43.29.29,0,0,1-.27.11h-4.76a3.9,3.9,0,0,0,.19,1.13,2.28,2.28,0,0,0,.45.81,1.81,1.81,0,0,0,.69.48,2.42,2.42,0,0,0,.89.16,2.64,2.64,0,0,0,.8-.11,3.71,3.71,0,0,0,.59-.23l.42-.23a.58.58,0,0,1,.3-.11.31.31,0,0,1,.27.13Zm-1.15-3.4a2.39,2.39,0,0,0-.12-.77,1.77,1.77,0,0,0-.35-.61,1.58,1.58,0,0,0-.56-.4,2.12,2.12,0,0,0-2.14.36,2.46,2.46,0,0,0-.64,1.41Z"/><path class="cls-2" d="M309.57,166.94a4.91,4.91,0,0,1,.49-.46,3.11,3.11,0,0,1,.55-.35,2.87,2.87,0,0,1,.62-.23,2.93,2.93,0,0,1,.71-.08,2.59,2.59,0,0,1,1.05.2,2.1,2.1,0,0,1,.76.56,2.41,2.41,0,0,1,.46.87,3.77,3.77,0,0,1,.16,1.12v4.63H313v-4.63a1.85,1.85,0,0,0-.36-1.21,1.34,1.34,0,0,0-1.09-.43,2.07,2.07,0,0,0-1,.25,3.33,3.33,0,0,0-.87.69v5.33h-1.4v-7.27h.84a.34.34,0,0,1,.36.28Z"/><path class="cls-2" d="M322.23,172.17a2.77,2.77,0,0,1-.59.52,3.49,3.49,0,0,1-.72.35,4.33,4.33,0,0,1-.78.2,5,5,0,0,1-.8.07,3.71,3.71,0,0,1-1.39-.25,3.08,3.08,0,0,1-1.11-.74,3.4,3.4,0,0,1-.73-1.22,4.92,4.92,0,0,1-.26-1.67,4.15,4.15,0,0,1,.24-1.41,3.41,3.41,0,0,1,.68-1.14,3.11,3.11,0,0,1,1.08-.77,3.53,3.53,0,0,1,1.43-.28,3.36,3.36,0,0,1,1.23.22,2.74,2.74,0,0,1,1,.63,2.94,2.94,0,0,1,.64,1,3.88,3.88,0,0,1,.23,1.39.88.88,0,0,1-.07.43.29.29,0,0,1-.27.11h-4.76a3.9,3.9,0,0,0,.19,1.13,2.28,2.28,0,0,0,.45.81,1.81,1.81,0,0,0,.69.48,2.42,2.42,0,0,0,.89.16,2.64,2.64,0,0,0,.8-.11,3.71,3.71,0,0,0,.59-.23l.42-.23a.58.58,0,0,1,.3-.11.31.31,0,0,1,.27.13Zm-1.15-3.4A2.39,2.39,0,0,0,321,168a1.77,1.77,0,0,0-.35-.61,1.58,1.58,0,0,0-.56-.4,2.12,2.12,0,0,0-2.14.36,2.46,2.46,0,0,0-.64,1.41Z"/><path class="cls-2" d="M333.87,165.93l-2.34,7.27h-1.12c-.13,0-.22-.09-.27-.27l-1.53-4.73c0-.12-.07-.24-.1-.35s-.06-.24-.08-.35a5.12,5.12,0,0,1-.18.72l-1.55,4.72a.3.3,0,0,1-.31.27h-1.06L323,165.93h1.1a.47.47,0,0,1,.28.08.38.38,0,0,1,.15.2l1.31,4.46c0,.18.08.36.11.53s.06.34.09.51c0-.17.09-.34.14-.51l.15-.53,1.45-4.49a.38.38,0,0,1,.14-.2.39.39,0,0,1,.24-.07h.61a.43.43,0,0,1,.26.07.38.38,0,0,1,.14.2l1.42,4.49.15.53c0,.17.09.35.13.53,0-.17.06-.34.1-.52s.08-.35.13-.54l1.33-4.46a.38.38,0,0,1,.15-.2.44.44,0,0,1,.25-.08Z"/><path class="cls-2" d="M334.78,167a4,4,0,0,1,2.88-1.15,2.79,2.79,0,0,1,1.1.2,2.27,2.27,0,0,1,.81.57,2.42,2.42,0,0,1,.5.87,3.57,3.57,0,0,1,.17,1.12v4.64h-.62a.59.59,0,0,1-.31-.07.46.46,0,0,1-.17-.25l-.15-.64a5.88,5.88,0,0,1-.55.45,3.5,3.5,0,0,1-.57.34,2.88,2.88,0,0,1-.63.21,3.56,3.56,0,0,1-.74.07,2.68,2.68,0,0,1-.8-.12,1.79,1.79,0,0,1-.65-.36,1.7,1.7,0,0,1-.44-.61,2.09,2.09,0,0,1-.16-.85,1.61,1.61,0,0,1,.23-.83,2.11,2.11,0,0,1,.76-.71,4.88,4.88,0,0,1,1.37-.51,10.22,10.22,0,0,1,2.09-.23v-.53a1.85,1.85,0,0,0-.35-1.23,1.28,1.28,0,0,0-1-.41,2.24,2.24,0,0,0-.77.11,3,3,0,0,0-.54.25l-.39.25a.61.61,0,0,1-.35.11.4.4,0,0,1-.25-.08.69.69,0,0,1-.17-.19Zm4.09,3a10.68,10.68,0,0,0-1.44.13,4,4,0,0,0-1,.28,1.31,1.31,0,0,0-.54.4.88.88,0,0,0-.16.52,1.13,1.13,0,0,0,.09.47.86.86,0,0,0,.24.32,1,1,0,0,0,.36.18,1.68,1.68,0,0,0,.45.06,2.58,2.58,0,0,0,.59-.07,2.45,2.45,0,0,0,.5-.18,2.66,2.66,0,0,0,.45-.29,4.19,4.19,0,0,0,.42-.39Z"/><path class="cls-2" d="M343.51,166.94a3.75,3.75,0,0,1,1-.81,2.71,2.71,0,0,1,1.3-.31,2.63,2.63,0,0,1,1.15.24,2.42,2.42,0,0,1,.87.71,3.34,3.34,0,0,1,.55,1.12,5.32,5.32,0,0,1,.19,1.49,5.53,5.53,0,0,1-.22,1.6,3.73,3.73,0,0,1-.62,1.24,2.78,2.78,0,0,1-1,.8,3.13,3.13,0,0,1-1.95.22,2.29,2.29,0,0,1-.54-.2,2.22,2.22,0,0,1-.45-.32,3.33,3.33,0,0,1-.39-.42l-.06.61a.33.33,0,0,1-.36.29h-.9V162.64h1.4Zm0,4.48a2,2,0,0,0,.74.63,2.09,2.09,0,0,0,.87.18,1.77,1.77,0,0,0,1.5-.69,3.45,3.45,0,0,0,.53-2.1,3.12,3.12,0,0,0-.47-1.9,1.56,1.56,0,0,0-1.32-.6,1.93,1.93,0,0,0-1,.27,3,3,0,0,0-.82.77Z"/><path class="cls-2" d="M351.59,162.64V173.2h-1.4V162.64Z"/><path class="cls-2" d="M359.54,172.17a2.77,2.77,0,0,1-.59.52,3.49,3.49,0,0,1-.72.35,4.33,4.33,0,0,1-.78.2,5,5,0,0,1-.8.07,3.71,3.71,0,0,1-1.39-.25,3.08,3.08,0,0,1-1.11-.74,3.4,3.4,0,0,1-.73-1.22,4.92,4.92,0,0,1-.26-1.67,4.15,4.15,0,0,1,.24-1.41,3.41,3.41,0,0,1,.68-1.14,3.11,3.11,0,0,1,1.08-.77,3.53,3.53,0,0,1,1.43-.28,3.36,3.36,0,0,1,1.23.22,2.74,2.74,0,0,1,1,.63,2.94,2.94,0,0,1,.64,1,3.88,3.88,0,0,1,.23,1.39.88.88,0,0,1-.07.43.29.29,0,0,1-.27.11h-4.76a3.9,3.9,0,0,0,.19,1.13,2.28,2.28,0,0,0,.45.81,1.81,1.81,0,0,0,.69.48,2.42,2.42,0,0,0,.89.16,2.64,2.64,0,0,0,.8-.11,3.71,3.71,0,0,0,.59-.23l.42-.23a.58.58,0,0,1,.3-.11.31.31,0,0,1,.27.13Zm-1.15-3.4a2.39,2.39,0,0,0-.12-.77,1.77,1.77,0,0,0-.35-.61,1.58,1.58,0,0,0-.56-.4,2.12,2.12,0,0,0-2.14.36,2.46,2.46,0,0,0-.64,1.41Z"/><path class="cls-2" d="M368.16,162.93a5.74,5.74,0,0,1,1.72.23,3.36,3.36,0,0,1,1.21.65,2.57,2.57,0,0,1,.71,1,3.58,3.58,0,0,1,.23,1.32,3.41,3.41,0,0,1-.25,1.33,2.83,2.83,0,0,1-.74,1,3.36,3.36,0,0,1-1.21.68,5.29,5.29,0,0,1-1.67.24h-1.59v3.78H365V162.93Zm0,5.29a3.17,3.17,0,0,0,1-.15,2,2,0,0,0,.74-.42,1.76,1.76,0,0,0,.45-.66,2.29,2.29,0,0,0,.15-.85,1.91,1.91,0,0,0-.58-1.47,2.54,2.54,0,0,0-1.77-.54h-1.59v4.09Z"/><path class="cls-2" d="M376.15,165.82a3.84,3.84,0,0,1,1.45.26,3,3,0,0,1,1.1.75,3.38,3.38,0,0,1,.7,1.18,5.06,5.06,0,0,1,0,3.1,3.31,3.31,0,0,1-.7,1.18,3,3,0,0,1-1.1.75,4.18,4.18,0,0,1-2.9,0,3.07,3.07,0,0,1-1.11-.75,3.31,3.31,0,0,1-.71-1.18,5,5,0,0,1,0-3.1,3.38,3.38,0,0,1,.71-1.18,3.07,3.07,0,0,1,1.11-.75A3.86,3.86,0,0,1,376.15,165.82Zm0,6.39a1.78,1.78,0,0,0,1.54-.69,4,4,0,0,0,0-3.91,1.78,1.78,0,0,0-1.54-.7,1.8,1.8,0,0,0-1.56.7,4,4,0,0,0,0,3.91A1.8,1.8,0,0,0,376.15,172.22Z"/><path class="cls-2" d="M391.19,165.93l-2.34,7.27h-1.12c-.13,0-.22-.09-.27-.27l-1.53-4.73c0-.12-.07-.24-.1-.35s-.06-.24-.08-.35a5.12,5.12,0,0,1-.18.72L384,172.94a.3.3,0,0,1-.31.27h-1.06l-2.35-7.27h1.1a.47.47,0,0,1,.28.08.38.38,0,0,1,.15.2l1.31,4.46c0,.18.08.36.11.53s.06.34.09.51c0-.17.09-.34.14-.51l.15-.53,1.45-4.49a.38.38,0,0,1,.14-.2.39.39,0,0,1,.24-.07h.61a.43.43,0,0,1,.26.07.38.38,0,0,1,.14.2l1.42,4.49.15.53c0,.17.09.35.13.53,0-.17.06-.34.1-.52s.08-.35.13-.54l1.33-4.46a.38.38,0,0,1,.15-.2.44.44,0,0,1,.25-.08Z"/><path class="cls-2" d="M398.24,172.17a2.77,2.77,0,0,1-.59.52,3.49,3.49,0,0,1-.72.35,4.33,4.33,0,0,1-.78.2,5,5,0,0,1-.8.07A3.71,3.71,0,0,1,394,173a3.08,3.08,0,0,1-1.11-.74,3.4,3.4,0,0,1-.73-1.22,4.92,4.92,0,0,1-.26-1.67,4.15,4.15,0,0,1,.24-1.41,3.41,3.41,0,0,1,.68-1.14,3.11,3.11,0,0,1,1.08-.77,3.53,3.53,0,0,1,1.43-.28,3.36,3.36,0,0,1,1.23.22,2.74,2.74,0,0,1,1,.63,2.94,2.94,0,0,1,.64,1,3.88,3.88,0,0,1,.23,1.39.88.88,0,0,1-.07.43.29.29,0,0,1-.27.11h-4.76a3.9,3.9,0,0,0,.19,1.13,2.28,2.28,0,0,0,.45.81,1.81,1.81,0,0,0,.69.48,2.42,2.42,0,0,0,.89.16,2.64,2.64,0,0,0,.8-.11,3.71,3.71,0,0,0,.59-.23l.42-.23a.58.58,0,0,1,.3-.11.31.31,0,0,1,.27.13Zm-1.15-3.4A2.39,2.39,0,0,0,397,168a1.77,1.77,0,0,0-.35-.61,1.58,1.58,0,0,0-.56-.4,2.12,2.12,0,0,0-2.14.36,2.46,2.46,0,0,0-.64,1.41Z"/><path class="cls-2" d="M401.16,167.33a3.33,3.33,0,0,1,.84-1.12,1.8,1.8,0,0,1,1.19-.41,1.88,1.88,0,0,1,.45.05,1.18,1.18,0,0,1,.37.16l-.09,1.05a.23.23,0,0,1-.24.19l-.3,0a2.35,2.35,0,0,0-.43,0,1.71,1.71,0,0,0-.59.1,1.39,1.39,0,0,0-.46.29,2,2,0,0,0-.36.47,4.67,4.67,0,0,0-.29.63v4.55h-1.4v-7.27h.8a.45.45,0,0,1,.31.08.54.54,0,0,1,.12.29Z"/><path class="cls-2" d="M414,164.6a.57.57,0,0,1-.15.18.33.33,0,0,1-.2.06.52.52,0,0,1-.29-.12l-.41-.26a3.07,3.07,0,0,0-.59-.27,2.55,2.55,0,0,0-.82-.12,2.42,2.42,0,0,0-.79.12,1.65,1.65,0,0,0-.57.32,1.35,1.35,0,0,0-.35.48,1.5,1.5,0,0,0-.12.6,1.09,1.09,0,0,0,.21.69,1.86,1.86,0,0,0,.55.47,4.28,4.28,0,0,0,.78.33l.89.3q.46.16.89.35a3.17,3.17,0,0,1,.78.51,2.3,2.3,0,0,1,.55.74,2.47,2.47,0,0,1,.21,1.08,3.45,3.45,0,0,1-.23,1.27,3,3,0,0,1-.68,1,3.14,3.14,0,0,1-1.09.7,4,4,0,0,1-1.47.25,4.66,4.66,0,0,1-1-.1,4.78,4.78,0,0,1-.88-.27,4.39,4.39,0,0,1-.78-.42,3.86,3.86,0,0,1-.65-.55l.44-.73a.58.58,0,0,1,.15-.14.37.37,0,0,1,.2-.06.59.59,0,0,1,.35.16,5.79,5.79,0,0,0,.49.35,3.63,3.63,0,0,0,.69.35,2.71,2.71,0,0,0,1,.16,2.68,2.68,0,0,0,.84-.12,1.74,1.74,0,0,0,.63-.36A1.56,1.56,0,0,0,413,171a1.88,1.88,0,0,0,.14-.73,1.22,1.22,0,0,0-.21-.74,1.67,1.67,0,0,0-.55-.48,3.91,3.91,0,0,0-.78-.33l-.89-.28a9.05,9.05,0,0,1-.89-.34,3,3,0,0,1-.78-.51,2.27,2.27,0,0,1-.55-.78,2.85,2.85,0,0,1-.21-1.16,2.76,2.76,0,0,1,.21-1.07,2.71,2.71,0,0,1,.63-.91,3,3,0,0,1,1-.64,3.7,3.7,0,0,1,1.37-.24,4.46,4.46,0,0,1,1.59.28,3.68,3.68,0,0,1,1.26.79Z"/><path class="cls-2" d="M422.16,165.93l-4,9.38a.58.58,0,0,1-.17.24.5.5,0,0,1-.31.09h-1l1.33-2.9-3-6.81h1.22a.41.41,0,0,1,.28.09.51.51,0,0,1,.14.19l1.85,4.36.11.33a3.3,3.3,0,0,1,.09.33l.11-.34.12-.33,1.78-4.36a.48.48,0,0,1,.16-.2.41.41,0,0,1,.24-.08Z"/><path class="cls-2" d="M427.39,167.19a.39.39,0,0,1-.12.13.33.33,0,0,1-.16,0,.54.54,0,0,1-.25-.08l-.34-.17a3.27,3.27,0,0,0-.46-.17,2.18,2.18,0,0,0-.63-.08,1.89,1.89,0,0,0-.55.08,1.29,1.29,0,0,0-.42.21.92.92,0,0,0-.27.32.85.85,0,0,0-.09.39.65.65,0,0,0,.16.45,1.36,1.36,0,0,0,.42.31,4.05,4.05,0,0,0,.59.23l.68.22c.23.08.46.16.68.26a2.48,2.48,0,0,1,.59.37,1.74,1.74,0,0,1,.42.53,1.6,1.6,0,0,1,.16.75,2.4,2.4,0,0,1-.18.94,2.06,2.06,0,0,1-.54.75,2.52,2.52,0,0,1-.88.49,3.7,3.7,0,0,1-1.2.18,3.77,3.77,0,0,1-1.39-.25,3.46,3.46,0,0,1-1.07-.64l.33-.54a.43.43,0,0,1,.14-.16.44.44,0,0,1,.23-.05.49.49,0,0,1,.28.1l.34.22a2.66,2.66,0,0,0,.49.21,2.3,2.3,0,0,0,.71.1,2,2,0,0,0,.62-.09,1.29,1.29,0,0,0,.44-.24,1,1,0,0,0,.26-.35,1,1,0,0,0,.09-.42.71.71,0,0,0-.16-.48,1.41,1.41,0,0,0-.42-.33,3.45,3.45,0,0,0-.6-.24l-.69-.21a7.27,7.27,0,0,1-.69-.26,2.39,2.39,0,0,1-.6-.38,1.73,1.73,0,0,1-.42-.56,1.81,1.81,0,0,1-.16-.8,1.94,1.94,0,0,1,.18-.81,2,2,0,0,1,.51-.68,2.5,2.5,0,0,1,.82-.47,3.32,3.32,0,0,1,1.12-.17,3.54,3.54,0,0,1,1.31.23,3,3,0,0,1,1,.63Z"/><path class="cls-2" d="M431.59,173.32a1.79,1.79,0,0,1-1.35-.49,2,2,0,0,1-.48-1.41v-4.35h-.84a.27.27,0,0,1-.29-.3v-.56l1.18-.16.31-2.17a.34.34,0,0,1,.11-.19.31.31,0,0,1,.21-.07h.71V166h2.06v1h-2.06v4.26a.87.87,0,0,0,.21.64.73.73,0,0,0,.54.21,1,1,0,0,0,.33-.05,1.19,1.19,0,0,0,.24-.11l.17-.11a.22.22,0,0,1,.13-.05.17.17,0,0,1,.11,0,.4.4,0,0,1,.08.1l.41.67a2.43,2.43,0,0,1-.82.49A2.84,2.84,0,0,1,431.59,173.32Z"/><path class="cls-2" d="M440.42,172.17a2.77,2.77,0,0,1-.59.52,3.49,3.49,0,0,1-.72.35,4.33,4.33,0,0,1-.78.2,5,5,0,0,1-.8.07,3.71,3.71,0,0,1-1.39-.25,3.08,3.08,0,0,1-1.11-.74,3.4,3.4,0,0,1-.73-1.22,4.92,4.92,0,0,1-.26-1.67,4.15,4.15,0,0,1,.24-1.41,3.41,3.41,0,0,1,.68-1.14,3.11,3.11,0,0,1,1.08-.77,3.53,3.53,0,0,1,1.43-.28,3.36,3.36,0,0,1,1.23.22,2.74,2.74,0,0,1,1,.63,2.94,2.94,0,0,1,.64,1,3.88,3.88,0,0,1,.23,1.39.88.88,0,0,1-.07.43.29.29,0,0,1-.27.11h-4.76a3.9,3.9,0,0,0,.19,1.13,2.28,2.28,0,0,0,.45.81,1.81,1.81,0,0,0,.69.48,2.42,2.42,0,0,0,.89.16,2.64,2.64,0,0,0,.8-.11,3.71,3.71,0,0,0,.59-.23l.42-.23a.58.58,0,0,1,.3-.11.31.31,0,0,1,.27.13Zm-1.15-3.4a2.39,2.39,0,0,0-.12-.77,1.77,1.77,0,0,0-.35-.61,1.58,1.58,0,0,0-.56-.4,2.12,2.12,0,0,0-2.14.36,2.46,2.46,0,0,0-.64,1.41Z"/><path class="cls-2" d="M442,173.2v-7.27h.84a.34.34,0,0,1,.36.28l.1.69a3.72,3.72,0,0,1,.89-.78,2.15,2.15,0,0,1,1.15-.3,1.71,1.71,0,0,1,1.17.4,2.29,2.29,0,0,1,.66,1.08,2.24,2.24,0,0,1,.41-.66,2.28,2.28,0,0,1,.56-.46,2.44,2.44,0,0,1,.65-.27,2.91,2.91,0,0,1,.7-.08,2.73,2.73,0,0,1,1,.18,2,2,0,0,1,.77.53,2.35,2.35,0,0,1,.48.87,3.86,3.86,0,0,1,.16,1.17v4.63h-1.4v-4.63a1.85,1.85,0,0,0-.35-1.23,1.28,1.28,0,0,0-1-.42,1.6,1.6,0,0,0-.57.1,1.3,1.3,0,0,0-.48.31,1.47,1.47,0,0,0-.32.51,2,2,0,0,0-.12.72v4.63h-1.4v-4.63a1.92,1.92,0,0,0-.34-1.25,1.22,1.22,0,0,0-1-.4,1.58,1.58,0,0,0-.84.24,2.7,2.7,0,0,0-.71.64v5.39Z"/><path class="cls-2" d="M458.14,167.19a.39.39,0,0,1-.12.13.33.33,0,0,1-.16,0,.54.54,0,0,1-.25-.08l-.34-.17a3.27,3.27,0,0,0-.46-.17,2.18,2.18,0,0,0-.63-.08,1.89,1.89,0,0,0-.55.08,1.29,1.29,0,0,0-.42.21.92.92,0,0,0-.27.32.85.85,0,0,0-.09.39.65.65,0,0,0,.16.45,1.36,1.36,0,0,0,.42.31,4.05,4.05,0,0,0,.59.23l.68.22c.23.08.46.16.68.26a2.48,2.48,0,0,1,.59.37,1.74,1.74,0,0,1,.42.53,1.6,1.6,0,0,1,.16.75,2.4,2.4,0,0,1-.18.94,2.06,2.06,0,0,1-.54.75,2.52,2.52,0,0,1-.88.49,3.7,3.7,0,0,1-1.2.18,3.77,3.77,0,0,1-1.39-.25,3.46,3.46,0,0,1-1.07-.64l.33-.54a.43.43,0,0,1,.14-.16.44.44,0,0,1,.23-.05.49.49,0,0,1,.28.1l.34.22a2.66,2.66,0,0,0,.49.21,2.3,2.3,0,0,0,.71.1,2,2,0,0,0,.62-.09,1.29,1.29,0,0,0,.44-.24,1,1,0,0,0,.26-.35,1,1,0,0,0,.09-.42.71.71,0,0,0-.16-.48,1.41,1.41,0,0,0-.42-.33,3.45,3.45,0,0,0-.6-.24l-.69-.21a7.27,7.27,0,0,1-.69-.26,2.39,2.39,0,0,1-.6-.38,1.73,1.73,0,0,1-.42-.56,1.81,1.81,0,0,1-.16-.8,1.94,1.94,0,0,1,.18-.81,2,2,0,0,1,.51-.68A2.5,2.5,0,0,1,455,166a3.32,3.32,0,0,1,1.12-.17,3.54,3.54,0,0,1,1.31.23,3,3,0,0,1,1,.63Z"/></g></g></svg>